<svg width="26" height="24" viewBox="0 0 26 24" fill="none" xmlns="http://www.w3.org/2000/svg">
<g id="Iconly/Light-outline/Chat">
<g id="Chat">
<path id="Chat_2" fill-rule="evenodd" clip-rule="evenodd" d="M12.8018 2.0002C9.09014 1.98609 5.64359 3.80697 3.71469 6.80006C1.78554 9.79355 1.65603 13.5226 3.37335 16.6291L3.56765 16.9875C3.64192 17.1192 3.65625 17.2613 3.61321 17.3926C3.33571 18.0864 3.0919 18.8357 2.89735 19.5969L2.87669 19.7609C2.87669 20.5263 3.30835 21.0522 4.16508 21.0342L4.30773 21.018C5.08598 20.8554 5.85241 20.6459 6.60232 20.3908C6.70173 20.3671 6.86455 20.3763 7.01148 20.4332L7.73289 20.8194C7.73451 20.8242 7.73573 20.8277 7.74328 20.8319L7.7917 20.8479C11.6761 22.7803 16.42 22.2472 19.7162 19.5078C23.0128 16.7681 24.1768 12.3901 22.6417 8.50383C21.1067 4.61799 17.1919 2.03073 12.8018 2.0002ZM12.4948 3.39899L12.7916 3.39459C16.57 3.42178 19.9393 5.64858 21.2602 8.99231C22.5808 12.3357 21.5795 16.1021 18.7428 18.4595L18.5101 18.6466C15.7662 20.778 11.9565 21.2076 8.75862 19.7467L8.4545 19.6025L8.46753 19.6042L8.44829 19.5992L8.00192 19.3569C7.84119 19.2709 7.71369 19.2058 7.61093 19.159C7.12139 18.9681 6.62445 18.9399 6.15706 19.0617L5.71459 19.2055C5.42217 19.2968 5.13432 19.3794 4.8479 19.4541L4.43034 19.5573L4.33086 19.9249C4.51122 19.2192 4.73724 18.5246 5.00767 17.8451C5.18168 17.3182 5.12847 16.7905 4.87413 16.3402L4.6829 15.9873C3.20278 13.3098 3.31419 10.1019 4.97392 7.52645C6.582 5.03117 9.41631 3.48232 12.4948 3.39899ZM6.90038 12.0002C6.90038 11.37 7.44076 10.8595 8.10675 10.8595C8.77275 10.8595 9.31313 11.37 9.31313 12.0002C9.31313 12.6304 8.77275 13.1408 8.10675 13.1408C7.44076 13.1408 6.90038 12.6304 6.90038 12.0002ZM11.59 12.0002C11.59 11.37 12.1304 10.8595 12.7964 10.8595C13.4624 10.8595 14.0027 11.37 14.0027 12.0002C14.0027 12.6304 13.4624 13.1408 12.7964 13.1408C12.1304 13.1408 11.59 12.6304 11.59 12.0002ZM17.486 10.8595C16.82 10.8595 16.2796 11.37 16.2796 12.0002C16.2796 12.6304 16.82 13.1408 17.486 13.1408C18.152 13.1408 18.6924 12.6304 18.6924 12.0002C18.6924 11.37 18.152 10.8595 17.486 10.8595Z" fill="#BDBDBD"/>
</g>
</g>
</svg>
