<svg width="26" height="24" viewBox="0 0 26 24" fill="none" xmlns="http://www.w3.org/2000/svg">
<g id="Iconly/Light-outline/Folder">
<g id="Folder">
<path id="Folder_2" fill-rule="evenodd" clip-rule="evenodd" d="M9.97613 2H7.93431C3.99935 2 2.1709 4.17544 2.1709 8.22847V15.7715C2.1709 19.6361 4.66904 22 8.75477 22H16.7076C20.7855 22 23.2822 19.6347 23.2822 15.7715L23.3101 10.9706C23.3102 6.92273 21.5245 4.94127 17.5281 4.94127H14.6378C14.1461 4.94034 13.6818 4.72042 13.3851 4.34714L12.4531 3.17286C11.8688 2.43479 10.9509 2 9.97613 2ZM7.93431 3.45147H9.97613C10.4687 3.45147 10.9325 3.67116 11.228 4.04444L12.1609 5.21988C12.7468 5.95693 13.663 6.3909 14.6363 6.39273L17.5281 6.39274C20.6198 6.39274 21.778 7.67793 21.778 10.9666L21.7501 15.7675C21.7501 18.8331 19.9393 20.5485 16.7076 20.5485H8.75477C5.51481 20.5485 3.70302 18.8341 3.70302 15.7715V8.22847C3.70302 4.91372 4.93203 3.45147 7.93431 3.45147ZM18.3874 14.5438C18.3874 14.143 18.0444 13.8181 17.6213 13.8181H7.82242L7.71848 13.8247C7.34456 13.8727 7.05637 14.1764 7.05637 14.5438C7.05637 14.9446 7.39934 15.2695 7.82242 15.2695H17.6213L17.7253 15.2629C18.0992 15.2149 18.3874 14.9112 18.3874 14.5438Z" fill="#C4C4C4"/>
</g>
</g>
</svg>
