<svg width="26" height="24" viewBox="0 0 26 24" fill="none" xmlns="http://www.w3.org/2000/svg">
<g id="Iconly/Light-outline/Home">
<g id="Home">
<path id="Home_2" fill-rule="evenodd" clip-rule="evenodd" d="M21.4982 7.65929C22.2064 8.17829 22.6408 8.94929 22.7148 9.78829L22.7253 9.98929V18.0983C22.7253 20.1883 20.9803 21.8883 18.7934 21.9983H16.6901C15.6849 21.9793 14.8721 21.2393 14.7981 20.3093L14.7876 20.1683V17.3093C14.7876 16.9983 14.5434 16.7393 14.2168 16.6883L14.1217 16.6783H11.2985C10.9614 16.6883 10.6865 16.9183 10.6443 17.2183L10.6337 17.3093V20.1593C10.6337 20.2183 10.6221 20.2883 10.6126 20.3383L10.602 20.3593L10.5904 20.4283C10.4646 21.2793 9.72471 21.9283 8.80515 21.9893L8.66775 21.9983H6.77579C4.56674 21.9983 2.75933 20.3593 2.64307 18.2983V9.98929C2.65258 9.13829 3.04471 8.34829 3.70003 7.79829L10.2849 2.78829C11.6272 1.77929 13.5086 1.73929 14.8922 2.66829L15.0624 2.78829L21.4982 7.65929ZM21.2445 18.2583L21.2562 18.0983V9.99829C21.2445 9.56929 21.0553 9.16829 20.7277 8.86929L20.5903 8.75829L14.1428 3.87829C13.3395 3.26829 12.198 3.23929 11.3524 3.76829L11.1928 3.87829L4.7665 8.77929C4.39762 9.03829 4.17566 9.42829 4.12281 9.83829L4.11119 9.99829V18.0983C4.11119 19.4283 5.21043 20.5183 6.60667 20.5983H8.66775C8.90028 20.5983 9.1011 20.4493 9.13176 20.2393L9.15395 20.0593L9.16452 20.0083V17.3093C9.16452 16.2393 10.0312 15.3693 11.141 15.2883H14.1217C15.2516 15.2883 16.1711 16.1093 16.2567 17.1593V20.1683C16.2567 20.3783 16.4153 20.5593 16.6267 20.5983H18.5916C20.0079 20.5983 21.16 19.5693 21.2445 18.2583Z" fill="#369FFF"/>
</g>
</g>
</svg>
