<svg width="26" height="24" viewBox="0 0 26 24" fill="none" xmlns="http://www.w3.org/2000/svg">
<g id="Iconly/Light-outline/Setting">
<g id="Setting">
<path id="Setting_2" fill-rule="evenodd" clip-rule="evenodd" d="M13.392 2H12.0867C11.3515 2 10.6466 2.27155 10.128 2.75457C9.66833 3.1827 9.38715 3.74716 9.33294 4.34781L9.32394 4.54181C9.31392 5.17352 8.77451 5.66634 8.11242 5.66628C7.96227 5.6648 7.80633 5.63238 7.66276 5.5713L7.52194 5.50171C6.22103 4.81017 4.52961 5.23376 3.76637 6.46166L3.0801 7.50695C2.35037 8.68048 2.71028 10.1548 3.88825 10.9141L4.05207 11.0115C4.45584 11.2284 4.68666 11.599 4.68666 12C4.68666 12.3688 4.49116 12.7137 4.16513 12.9228L4.05383 12.9875C2.83343 13.6412 2.35257 15.0841 2.96603 16.2844L3.05568 16.4442L3.72932 17.5224C4.07946 18.1083 4.67946 18.5497 5.3891 18.7366C6.01807 18.9023 6.68932 18.8565 7.28441 18.6084L7.47258 18.5213C7.78928 18.3516 8.11647 18.3109 8.42356 18.3871C8.73064 18.4633 8.99218 18.65 9.15003 18.9057C9.23706 19.0418 9.28815 19.1822 9.30639 19.3277L9.31536 19.4753C9.31381 20.8493 10.5553 22 12.0867 22H13.3924C14.8384 22 16.0385 20.9703 16.1559 19.6414L16.1645 19.4698C16.1636 19.1379 16.2903 18.8524 16.5171 18.6422C16.7438 18.432 17.0518 18.3146 17.3724 18.316C17.5198 18.3199 17.6818 18.3541 17.8318 18.4163L17.9757 18.485C19.1894 19.1344 20.7799 18.8008 21.5991 17.7089L21.7042 17.557L22.4014 16.4804C22.7767 15.8833 22.8784 15.1817 22.6889 14.523C22.5209 13.9391 22.1358 13.4297 21.6028 13.0841L21.4263 12.9793C21.1196 12.8149 20.9175 12.5708 20.8351 12.2844C20.7527 11.998 20.7968 11.6929 20.9578 11.4368C21.047 11.2926 21.1655 11.1726 21.3077 11.0807L21.5796 10.9223C22.6809 10.2293 23.0933 8.86519 22.5136 7.71842L22.4535 7.60674C22.4405 7.57762 22.4254 7.54922 22.4084 7.52174L21.7603 6.47928C21.0392 5.31918 19.48 4.86897 18.1799 5.4355L18.0068 5.51839C17.6961 5.68688 17.3681 5.72947 17.0593 5.65514C16.7504 5.58081 16.4862 5.39567 16.3248 5.14055C16.242 5.01116 16.1909 4.87079 16.1726 4.72535L16.1637 4.57766C16.1864 3.94968 15.9038 3.27681 15.3814 2.77871C14.8591 2.28061 14.1414 1.99971 13.392 2ZM12.0867 3.44774H13.3924C13.72 3.44761 14.0334 3.57029 14.2615 3.78783C14.4896 4.00537 14.6131 4.29923 14.6037 4.60249L14.6176 4.85454C14.6648 5.23984 14.7868 5.57504 14.9796 5.87616C15.3487 6.45965 15.9565 6.88546 16.6667 7.05641C17.377 7.22736 18.1315 7.12941 18.7638 6.78415L18.8728 6.73265L18.9901 6.6891C19.5063 6.52853 20.1147 6.73175 20.407 7.20208L21.0251 8.19726L21.0385 8.22529L21.1132 8.35884C21.3634 8.85504 21.1543 9.4827 20.6131 9.77613L20.4432 9.87532C20.0829 10.1073 19.8065 10.3872 19.6054 10.7126C19.2381 11.2971 19.1364 11.9987 19.3259 12.6574C19.4982 13.2563 19.8982 13.7748 20.4485 14.1195L20.7363 14.2882C20.9393 14.4207 21.1067 14.6422 21.1797 14.896C21.2621 15.1824 21.218 15.4875 21.057 15.7436L20.3759 16.7957L20.2993 16.9067C19.9841 17.3258 19.3624 17.4814 18.8382 17.2682L18.5042 17.11C18.1317 16.9547 17.7673 16.8778 17.3971 16.8686C16.6425 16.865 15.9342 17.1351 15.4127 17.6185C14.8912 18.1019 14.5998 18.7585 14.6034 19.4421L14.5974 19.5511C14.5481 20.1023 14.0237 20.5523 13.3924 20.5523H12.0867C11.4624 20.5523 10.9485 20.1145 10.8828 19.552L10.8615 19.1985C10.8142 18.8132 10.6922 18.478 10.4994 18.1768C10.141 17.5959 9.53678 17.1645 8.82731 16.9886C8.11784 16.8126 7.36192 16.9066 6.72758 17.2497L6.61267 17.3018C6.38394 17.3964 6.09077 17.4164 5.81608 17.344C5.50616 17.2624 5.24411 17.0696 5.08793 16.8084L4.42285 15.7449L4.36335 15.6383C4.11141 15.144 4.3206 14.5163 4.86266 14.2256L5.02734 14.1296C5.80097 13.634 6.2485 12.8446 6.2485 12C6.2485 11.1429 5.78811 10.3467 5.0292 9.871L4.75363 9.70925C4.26672 9.39466 4.10945 8.75044 4.42391 8.24455L5.11019 7.19925C5.45299 6.64815 6.1917 6.46315 6.77102 6.77085L6.97434 6.87026C7.3541 7.03293 7.72649 7.11034 8.10423 7.11398C9.56963 7.11416 10.7679 6.07087 10.8773 4.7415L10.8915 4.43661C10.9129 4.20741 11.0352 3.96196 11.235 3.77582C11.4605 3.56581 11.767 3.44774 12.0867 3.44774ZM12.7443 8.73182C10.797 8.73182 9.2185 10.195 9.2185 12C9.2185 13.805 10.797 15.2682 12.7443 15.2682C14.6915 15.2682 16.27 13.805 16.27 12C16.27 10.195 14.6915 8.73182 12.7443 8.73182ZM12.7443 10.1796C13.8289 10.1796 14.7082 10.9946 14.7082 12C14.7082 13.0054 13.8289 13.8204 12.7443 13.8204C11.6596 13.8204 10.7803 13.0054 10.7803 12C10.7803 10.9946 11.6596 10.1796 12.7443 10.1796Z" fill="#BDBDBD"/>
</g>
</g>
</svg>
